# xmcd CD Database Entry
#
# Track frame offsets:
# 150
# 18020
# 30010
# 45052
# 64930
# 85287
# 110425
# 124212
# 139535
# 154777
# 170377
# 190415
# 208492
# 230112
# 244970
# 259307
# 279152
# 297505
#
# Disc length: 4202 seconds
#
# Revision: 1
# Processed by: cddbd v1.4PL0 Copyright (c) Steve Scherf et al.
# Submitted via: tcd 2.0b
#
DISCID=fd106812
DTITLE=Ukendt - Ukendt
DYEAR=2003
DGENRE=Blues
TTITLE0=Spor 1
TTITLE1=Spor 2
TTITLE2=Spor 3
TTITLE3=Spor 4
TTITLE4=Spor 5
TTITLE5=Spor 6
TTITLE6=Spor 7
TTITLE7=Spor 8
TTITLE8=Spor 9
TTITLE9=Spor 10
TTITLE10=Spor 11
TTITLE11=Spor 12
TTITLE12=Spor 13
TTITLE13=Spor 14
TTITLE14=Spor 15
TTITLE15=Spor 16
TTITLE16=Spor 17
TTITLE17=Spor 18
EXTD=
EXTT0=
EXTT1=
EXTT2=
EXTT3=
EXTT4=
EXTT5=
EXTT6=
EXTT7=
EXTT8=
EXTT9=
EXTT10=
EXTT11=
EXTT12=
EXTT13=
EXTT14=
EXTT15=
EXTT16=
EXTT17=
PLAYORDER=
